# xmcd
#
# Track frame offsets: 
#        150
#        21850
#        34155
#        45481
#        64695
#        79176
#        97119
#        111330
#        128807
#        144869
#        159673
#        187533
#
# Disc length: 2667 seconds
#
# Revision: 1
# Processed by: cddbd v1.4PL0 Copyright (c) Steve Scherf et al.
# Submitted via: ExactAudioCopy v0.95a3
#
DISCID=960a690c
DTITLE=Various Artist - Takorautaa
DYEAR=2002
DGENRE=Rock
TTITLE0=Toni Wirtanen - Romanssi
TTITLE1=Nylon Beat - Nuoruustango
TTITLE2=Tidjan - Sinua Sinua Rakastan
TTITLE3=Timo Rautiainen - Akselin Ja Elinan Häävalssi
TTITLE4=Maija Vilkkumaa - Laulu Rakastamisen Vaikeudesta
TTITLE5=Ville Tuomi - Nocturne
TTITLE6=Tuomari Nurmio - Hopeinen Kuu
TTITLE7=Sheidi - Laulu Kuolleesta Rakastetusta
TTITLE8=Kauko Röyhkä - Liljankukka
TTITLE9=Wallu Valpio - Kulkurin Valssi
TTITLE10=Zarcus Poussa-Hemma Beast - Sinun Omasi
TTITLE11=Jartse Tuominen - Balladi Elokuvasta Klaani
EXTD=
EXTT0=
EXTT1=
EXTT2=
EXTT3=
EXTT4=
EXTT5=
EXTT6=
EXTT7=
EXTT8=
EXTT9=
EXTT10=
EXTT11=
PLAYORDER=
